<?xml version="1.0" standalone="no"?>
<!DOCTYPE svg PUBLIC "-//W3C//DTD SVG 20010904//EN"
 "http://www.w3.org/TR/2001/REC-SVG-20010904/DTD/svg10.dtd">
<svg version="1.0" xmlns="http://www.w3.org/2000/svg"
 width="679.000000pt" height="679.000000pt" viewBox="0 0 679.000000 679.000000"
 preserveAspectRatio="xMidYMid meet">
<metadata>
Created by potrace 1.14, written by Peter Selinger 2001-2017
</metadata>
<g transform="translate(0.000000,679.000000) scale(0.100000,-0.100000)"
fill="#000000" stroke="none">
<path d="M2355 6260 c-3 -5 -20 -10 -38 -10 -18 1 -54 -2 -82 -5 -27 -3 -58
-6 -67 -6 -10 0 -18 -5 -18 -11 0 -6 -6 -6 -15 2 -10 8 -15 9 -15 1 0 -6 -10
-11 -22 -11 -31 1 -58 -5 -91 -19 -16 -6 -33 -9 -38 -5 -5 3 -9 0 -9 -7 0 -6
-8 -9 -20 -6 -13 3 -18 1 -13 -6 4 -6 0 -8 -10 -4 -10 3 -17 2 -17 -2 0 -5 -7
-12 -16 -15 -10 -4 -13 -2 -8 6 4 7 -6 3 -22 -9 -16 -11 -37 -19 -47 -18 -9 2
-15 0 -13 -4 2 -3 -7 -11 -20 -18 -18 -8 -23 -8 -18 0 3 7 -2 3 -10 -7 -9 -11
-16 -16 -16 -10 0 5 -3 5 -8 -1 -13 -18 -53 -36 -65 -29 -7 4 -9 4 -5 -1 8 -9
-31 -42 -44 -37 -5 1 -8 -3 -8 -10 0 -6 -3 -8 -7 -5 -3 4 -12 -1 -20 -11 -9
-11 -12 -12 -8 -2 4 8 -3 4 -16 -10 -35 -38 -74 -68 -64 -50 5 8 -8 -2 -28
-23 -20 -21 -41 -36 -47 -32 -6 3 -7 -1 -4 -9 6 -14 -5 -21 -28 -17 -4 0 -4
-7 -1 -16 4 -11 3 -14 -5 -9 -11 7 -17 -6 -13 -27 1 -5 -3 -6 -9 -2 -5 3 -14
-5 -20 -19 -5 -14 -14 -26 -20 -26 -5 0 -10 -6 -10 -14 0 -8 -5 -18 -12 -22
-7 -5 -8 -2 -3 7 5 8 4 11 -1 6 -5 -5 -9 -12 -9 -15 -2 -23 -18 -51 -26 -47
-12 8 -11 -2 2 -26 8 -17 7 -24 -8 -36 -10 -8 -12 -11 -4 -7 11 5 13 3 8 -9
-6 -16 4 -22 27 -18 5 1 6 -5 3 -13 -4 -9 -2 -18 3 -21 6 -4 10 0 10 7 0 9 12
13 34 12 29 -2 33 1 31 21 -2 18 1 21 21 17 19 -3 23 -1 19 17 -2 12 0 19 5
16 5 -3 14 3 20 12 11 17 11 17 6 1 -3 -10 -1 -18 4 -18 6 0 10 7 10 16 0 11
6 15 18 12 11 -3 19 0 19 7 0 7 -7 11 -16 8 -9 -2 -4 3 12 12 15 9 33 13 40 9
9 -6 9 -4 -1 8 -10 13 -9 15 13 13 13 -2 24 0 24 3 -3 18 2 33 9 29 10 -7 32
19 24 28 -4 4 3 3 15 -4 20 -10 21 -9 18 21 -4 29 -3 30 10 12 9 -12 14 -14
15 -6 0 7 5 10 10 7 6 -3 10 -1 10 5 0 6 5 8 12 4 6 -4 8 -3 4 4 -3 6 -2 13 4
17 5 3 10 1 10 -5 0 -6 14 4 30 22 17 18 30 29 30 25 0 -4 10 -2 23 5 12 7 27
13 32 13 6 0 10 9 9 21 0 13 7 21 20 22 17 1 18 -1 6 -8 -11 -7 -12 -10 -2
-10 8 0 16 9 19 20 4 15 9 17 23 10 13 -7 21 -7 25 0 3 5 3 10 -2 11 -4 0 3 5
17 11 14 6 28 10 33 10 4 -1 7 2 7 8 0 6 4 10 10 10 5 0 7 -8 4 -17 -5 -15 -4
-15 4 -3 6 8 8 18 6 22 -3 4 4 8 16 8 12 0 18 4 15 10 -3 6 1 7 9 4 10 -4 16
-1 16 7 0 9 3 10 8 4 4 -5 13 -11 21 -13 12 -3 12 0 2 12 -10 12 -9 14 8 9 12
-3 18 -10 14 -16 -3 -6 -1 -7 6 -3 9 6 9 11 -1 24 -12 14 -10 14 10 3 23 -12
30 -3 11 16 -8 8 -7 13 2 18 7 5 10 4 5 -3 -8 -14 11 -25 27 -15 18 11 38 13
31 2 -3 -5 10 -7 30 -5 20 3 38 1 41 -5 4 -5 12 -6 18 -2 17 11 30 11 44 0 15
-11 29 16 17 34 -4 8 -3 9 4 5 7 -4 12 -14 12 -22 0 -9 6 -14 13 -11 6 2 11
10 9 17 -2 11 1 10 15 0 28 -22 29 -24 10 -17 -10 4 -16 3 -12 -2 3 -5 18 -8
33 -7 34 4 74 -13 65 -28 -4 -6 2 -4 12 4 15 12 17 12 10 1 -6 -11 -4 -13 9
-8 9 4 15 3 12 -2 -3 -4 4 -18 15 -29 26 -29 33 -28 14 2 -14 22 -15 24 -1 22
9 -1 19 -6 23 -11 4 -4 2 -5 -4 -1 -17 9 -16 -4 2 -28 8 -11 19 -15 27 -10 10
6 10 4 -1 -9 -7 -9 -9 -17 -3 -17 5 0 15 -13 21 -30 5 -16 13 -30 16 -30 3 0
4 4 0 9 -3 5 -1 12 4 15 11 7 9 -13 -3 -33 -6 -10 -5 -12 2 -7 8 5 12 -2 12
-18 0 -14 5 -26 12 -26 9 0 9 -3 0 -12 -7 -7 -12 -17 -12 -22 0 -6 5 -4 11 4
9 12 10 11 6 -8 -3 -12 -2 -20 3 -17 4 3 10 -6 12 -20 3 -13 1 -22 -3 -19 -11
6 -12 -10 -1 -20 13 -14 8 -61 -8 -68 -12 -5 -10 -7 5 -7 17 -1 18 -3 5 -11
-13 -9 -13 -11 0 -20 10 -6 11 -10 3 -10 -7 0 -13 -7 -13 -16 0 -9 5 -12 13
-8 8 6 8 3 -1 -9 -8 -9 -11 -21 -7 -27 3 -5 -2 -10 -11 -10 -16 0 -16 -1 2
-16 10 -8 14 -13 7 -10 -6 4 -14 2 -18 -4 -3 -5 -1 -10 6 -10 8 0 7 -5 -2 -17
-8 -10 -9 -14 -2 -10 19 12 6 -36 -14 -52 -15 -11 -15 -13 -2 -8 13 4 15 1 12
-14 -4 -13 -11 -18 -21 -14 -12 4 -12 2 -4 -8 7 -8 9 -17 5 -21 -4 -4 -2 -11
5 -15 9 -5 5 -11 -13 -21 -21 -11 -22 -15 -9 -24 13 -10 12 -14 -6 -34 -11
-12 -16 -22 -10 -22 15 0 2 -41 -19 -58 -9 -8 -10 -10 -2 -6 9 4 12 2 9 -7 -3
-8 -11 -13 -17 -11 -7 1 -10 -2 -7 -7 4 -5 2 -12 -4 -16 -7 -4 -7 -12 0 -25 7
-14 5 -21 -13 -34 -12 -9 -16 -14 -9 -11 6 3 12 1 12 -4 0 -6 -5 -11 -11 -11
-6 0 -8 -7 -5 -15 3 -9 -1 -18 -10 -22 -12 -4 -12 -8 -4 -13 9 -5 6 -10 -9
-15 -11 -3 -21 -11 -21 -16 0 -13 18 -11 23 4 4 9 6 9 6 -1 1 -7 -6 -15 -14
-18 -8 -4 -12 -10 -9 -15 3 -5 1 -9 -5 -9 -6 0 -8 -7 -5 -15 4 -9 -1 -18 -11
-21 -13 -5 -14 -9 -3 -15 10 -6 8 -9 -7 -9 -14 0 -16 -3 -7 -9 17 -10 -6 -64
-24 -57 -8 3 -11 -1 -7 -11 3 -8 0 -19 -8 -24 -11 -7 -11 -9 -1 -9 7 0 10 -5
7 -10 -4 -6 -11 -8 -16 -5 -5 3 -6 -1 -3 -9 4 -10 1 -16 -7 -16 -11 0 -11 -3
1 -10 13 -8 12 -10 -2 -10 -18 0 -21 -7 -21 -42 0 -10 -7 -18 -16 -19 -9 0
-11 -3 -4 -5 7 -3 9 -12 6 -20 -3 -7 -9 -12 -13 -9 -5 3 -7 -3 -6 -12 2 -10
-4 -24 -13 -31 -9 -8 -10 -11 -3 -7 6 3 12 1 12 -4 0 -6 -5 -11 -11 -11 -6 0
-8 -7 -5 -16 4 -11 -1 -18 -15 -21 -14 -4 -17 -8 -9 -13 9 -6 7 -13 -8 -28
-14 -14 -17 -22 -9 -26 9 -3 9 -5 0 -5 -7 -1 -13 -8 -13 -17 0 -9 -8 -23 -17
-31 -10 -8 -12 -12 -6 -8 9 4 11 1 7 -9 -3 -9 -10 -16 -16 -16 -5 0 -6 -4 -3
-10 3 -5 1 -10 -5 -10 -6 0 -9 -4 -6 -9 3 -5 -1 -22 -9 -37 -8 -16 -15 -35
-15 -41 0 -7 -8 -13 -17 -14 -12 0 -13 -2 -5 -6 10 -4 9 -9 -5 -20 -10 -8 -13
-12 -6 -9 14 8 11 -11 -7 -44 -8 -14 -13 -29 -12 -33 1 -5 -3 -5 -9 -1 -9 5
-10 2 -6 -10 4 -10 1 -19 -9 -23 -13 -5 -13 -7 -2 -14 10 -7 11 -9 0 -9 -7 0
-10 -4 -7 -10 3 -5 1 -10 -4 -10 -6 0 -11 5 -11 12 0 6 -3 9 -6 6 -3 -4 -1
-15 4 -25 12 -23 5 -43 -16 -43 -15 0 -15 -2 -2 -10 11 -7 11 -10 2 -10 -8 0
-10 -5 -6 -12 5 -8 2 -9 -11 -4 -14 5 -16 4 -6 -7 9 -11 7 -24 -7 -56 -10 -22
-22 -38 -26 -34 -3 4 -5 -4 -4 -18 2 -14 -2 -23 -9 -22 -7 2 -10 -4 -6 -13 3
-8 -3 -22 -13 -30 -11 -9 -14 -13 -7 -10 7 4 11 -1 10 -13 -1 -12 -6 -17 -17
-13 -8 3 -12 2 -8 -3 4 -4 2 -15 -5 -23 -10 -13 -9 -14 2 -8 9 6 12 5 9 -5 -3
-8 -11 -13 -18 -11 -11 3 -11 0 0 -12 9 -12 10 -16 0 -16 -7 0 -10 -7 -6 -15
3 -10 -1 -15 -12 -15 -13 0 -14 -2 -3 -9 10 -6 10 -10 1 -16 -6 -4 -9 -13 -6
-21 3 -8 1 -14 -4 -14 -5 0 -6 -8 -3 -17 5 -12 2 -15 -9 -11 -13 5 -15 0 -11
-28 4 -30 2 -33 -14 -28 -17 6 -17 6 1 -8 18 -14 18 -15 -5 -33 -13 -9 -17
-15 -9 -12 11 3 16 -2 17 -14 1 -11 -5 -19 -14 -19 -13 0 -14 -2 -2 -17 12
-15 12 -16 -3 -10 -13 4 -15 2 -11 -10 5 -11 3 -14 -6 -8 -7 4 -5 -5 5 -21 11
-15 14 -25 8 -21 -7 4 -15 0 -18 -9 -3 -8 -2 -12 4 -9 6 3 10 -1 10 -9 0 -8
-4 -18 -10 -21 -5 -3 -10 -11 -10 -16 0 -6 6 -7 13 -3 9 6 9 4 -1 -8 -8 -9
-11 -31 -9 -50 2 -18 0 -41 -4 -50 -6 -10 -5 -19 2 -23 6 -5 4 -12 -8 -22 -17
-14 -17 -14 1 -8 20 6 20 6 0 -16 -15 -18 -16 -21 -3 -16 21 7 20 -23 -1 -41
-8 -7 -10 -12 -5 -11 22 3 29 -2 16 -10 -8 -5 -16 -17 -17 -25 -1 -9 2 -14 7
-10 5 3 9 0 9 -6 0 -6 4 -9 8 -6 11 6 9 -25 -3 -43 -5 -9 -4 -12 2 -8 6 4 14
0 17 -9 4 -9 2 -13 -5 -8 -8 4 -9 -1 -4 -16 5 -17 4 -21 -5 -15 -8 5 -11 4 -6
-3 4 -6 12 -9 20 -6 7 3 13 -2 13 -10 0 -8 -3 -13 -7 -11 -4 2 -7 -2 -7 -11 0
-9 7 -12 19 -8 10 3 18 0 18 -6 0 -6 -4 -8 -10 -5 -5 3 -10 1 -10 -4 0 -6 4
-11 9 -11 5 0 8 -11 6 -25 -1 -14 2 -25 7 -25 5 0 6 -6 2 -12 -6 -10 -4 -10 8
0 14 11 16 10 11 -7 -3 -13 -1 -21 6 -21 7 0 9 -5 5 -12 -6 -10 -4 -10 8 0 13
10 18 10 24 1 4 -7 3 -9 -3 -6 -6 4 -13 -2 -16 -13 -6 -25 3 -33 21 -17 13 9
14 9 8 0 -5 -9 -1 -13 11 -14 13 -1 11 -3 -7 -9 l-25 -8 28 -1 c15 -1 27 -5
27 -11 0 -5 -8 -7 -17 -4 -15 5 -15 4 1 -6 14 -10 20 -9 28 1 6 10 7 7 3 -9
-5 -17 -1 -28 17 -42 12 -11 29 -24 36 -30 7 -6 10 -15 7 -20 -3 -5 4 -7 15
-5 11 2 20 -1 20 -6 0 -6 5 -7 12 -3 7 5 9 2 6 -7 -4 -10 1 -15 15 -16 11 -1
23 -7 27 -14 4 -6 13 -9 19 -5 7 4 9 1 5 -8 -4 -11 0 -13 15 -9 12 3 21 1 21
-6 0 -6 7 -11 16 -11 14 0 15 -2 3 -17 -12 -16 -11 -16 8 0 16 14 23 15 29 6
5 -8 3 -10 -6 -4 -8 5 -11 4 -6 -3 4 -6 13 -9 20 -6 7 3 20 -2 29 -10 19 -19
34 -20 40 -3 3 7 6 5 6 -5 1 -10 6 -18 12 -18 5 0 7 4 4 10 -3 5 0 7 9 4 8 -3
17 -11 19 -19 3 -7 15 -11 31 -8 16 3 23 10 19 17 -4 6 1 5 10 -3 18 -15 23
-26 7 -16 -5 3 -10 1 -10 -5 0 -7 7 -9 16 -6 10 4 26 -1 38 -11 13 -12 17 -13
9 -3 -10 13 -8 16 7 16 10 0 16 -4 14 -8 -3 -5 0 -7 8 -6 7 2 12 -4 10 -12 -3
-12 -1 -13 10 -2 11 11 10 14 -2 22 -12 8 -13 11 -2 22 8 7 12 9 10 3 -5 -16
29 -59 34 -43 3 7 16 13 31 13 14 1 23 -3 20 -9 -3 -5 -2 -6 3 -3 6 3 16 2 24
-3 7 -4 24 -4 37 1 15 5 22 5 19 0 -4 -5 2 -8 11 -6 10 1 26 -2 35 -6 10 -6
19 -5 23 2 4 6 14 8 23 4 13 -5 13 -3 -2 14 -11 13 -14 21 -6 26 6 4 9 1 8 -7
-2 -7 3 -12 10 -11 6 2 12 -2 12 -7 0 -6 9 -10 21 -10 11 0 17 5 14 10 -3 6
-1 10 4 10 6 0 11 -4 11 -9 0 -10 26 -9 36 2 4 4 20 7 36 7 16 0 27 4 24 9 -3
5 1 12 10 15 8 3 12 11 8 17 -4 8 -3 9 5 5 6 -4 9 -11 6 -16 -3 -4 2 -10 10
-14 8 -3 15 -1 15 3 0 15 33 22 42 9 5 -9 8 -5 8 11 0 24 0 24 15 5 13 -16 14
-16 9 -1 -3 9 -1 17 5 17 6 0 11 -6 12 -12 0 -7 5 -3 11 10 6 12 19 22 28 22
10 0 23 6 30 14 6 8 18 12 26 9 8 -3 14 0 14 6 0 6 -5 11 -12 11 -17 0 -4 10
21 15 12 2 21 -1 21 -8 0 -7 5 -4 11 6 5 9 16 17 23 17 18 0 37 24 39 49 1 12
5 21 10 21 5 0 5 -10 2 -21 -5 -15 -4 -19 4 -15 6 4 11 14 11 22 0 8 7 14 16
14 10 0 14 6 10 15 -3 8 -2 14 2 14 28 -4 34 1 21 18 -13 16 -12 17 3 5 19
-15 38 -8 38 13 0 8 5 17 12 21 7 4 8 3 4 -4 -4 -7 -2 -12 3 -12 6 0 11 6 11
13 0 7 13 20 29 30 22 13 29 23 26 40 -4 20 -3 21 9 5 18 -24 25 -23 18 4 -4
18 -2 20 16 16 16 -4 19 -2 15 10 -4 10 -2 13 5 8 7 -4 10 1 7 13 -2 14 1 18
11 14 7 -3 11 -10 7 -16 -3 -6 -1 -7 6 -3 9 6 9 11 0 22 -10 12 -9 13 6 8 15
-6 16 -4 5 17 -13 24 -13 24 9 5 22 -20 30 -9 9 13 -11 10 -10 12 2 9 8 -2 19
-7 23 -13 5 -6 7 0 4 13 -5 19 -3 21 9 11 11 -9 14 -8 14 4 0 11 5 14 17 10
11 -4 14 -3 9 5 -5 8 1 12 16 12 17 0 19 3 9 9 -9 6 -4 10 18 13 24 3 28 2 20
-8 -6 -7 -7 -19 -3 -25 5 -9 2 -10 -11 -5 -16 6 -16 4 -4 -11 12 -15 12 -16
-4 -10 -11 4 -16 3 -12 -3 12 -20 14 -50 3 -56 -7 -4 -8 -2 -4 4 5 8 2 10 -9
6 -14 -6 -14 -8 1 -19 16 -11 15 -14 -4 -33 -12 -12 -17 -22 -11 -22 5 0 7 -5
4 -10 -4 -6 -12 -7 -18 -3 -9 5 -9 3 0 -8 10 -12 9 -20 -2 -37 -9 -11 -14 -25
-13 -29 4 -14 -13 -53 -22 -53 -5 0 -7 -6 -4 -14 3 -8 0 -17 -5 -21 -6 -3 -9
-11 -6 -16 4 -5 -2 -9 -12 -10 -10 0 -13 -3 -6 -5 7 -3 9 -12 6 -20 -3 -7 -10
-11 -17 -7 -6 4 -4 -2 4 -12 8 -10 10 -16 4 -12 -7 4 -15 0 -18 -9 -3 -9 -2
-12 5 -8 6 3 4 -8 -5 -24 -9 -17 -16 -39 -16 -49 0 -14 -2 -15 -9 -5 -7 11
-10 10 -15 -3 -8 -23 -8 -27 4 -20 6 3 7 -1 4 -9 -3 -9 -10 -16 -16 -16 -5 0
-7 -3 -5 -7 3 -5 1 -18 -4 -30 -6 -16 -14 -21 -26 -17 -10 3 -14 2 -8 -3 14
-11 17 -33 5 -33 -5 0 -9 -6 -7 -12 1 -7 -3 -12 -10 -11 -7 2 -10 -4 -7 -12 8
-21 -16 -77 -31 -71 -8 3 -10 -4 -7 -20 2 -14 0 -24 -7 -24 -7 0 -9 -5 -5 -12
5 -7 2 -9 -8 -6 -11 5 -14 0 -10 -18 2 -14 0 -24 -7 -24 -7 0 -10 4 -6 9 3 5
2 12 -3 15 -4 2 -8 -6 -8 -19 0 -13 4 -22 8 -19 4 3 5 -2 2 -10 -3 -9 -10 -14
-14 -11 -4 3 -10 -5 -13 -16 -4 -14 -10 -18 -19 -13 -10 6 -10 4 1 -9 12 -15
9 -21 -11 -18 -4 0 -5 -6 -2 -14 4 -8 1 -15 -6 -15 -6 0 -8 -5 -5 -10 3 -5 1
-10 -5 -10 -6 0 -8 -5 -5 -10 3 -5 1 -10 -4 -10 -6 0 -11 -7 -11 -15 0 -21
-30 -66 -40 -60 -5 3 -12 0 -16 -6 -4 -8 -3 -9 4 -5 17 10 15 -10 -3 -27 -8
-8 -11 -17 -8 -21 6 -6 -13 -10 -31 -7 -5 1 -4 -5 4 -13 8 -11 9 -16 1 -16 -6
0 -11 -6 -11 -14 0 -8 -7 -16 -15 -20 -8 -3 -14 -9 -13 -14 2 -5 -6 -18 -17
-28 -12 -11 -15 -15 -8 -10 10 6 12 4 7 -8 -3 -9 -13 -16 -22 -16 -8 0 -12 -3
-9 -6 3 -4 -5 -15 -18 -26 -14 -10 -24 -22 -24 -26 1 -4 1 -16 0 -27 -1 -17
-3 -18 -11 -5 -8 12 -10 11 -10 -7 0 -12 -9 -28 -20 -36 -11 -8 -17 -17 -12
-22 4 -4 0 -6 -9 -2 -13 4 -16 1 -12 -14 5 -17 -5 -24 -29 -20 -4 0 -4 -7 -1
-16 5 -12 2 -15 -10 -10 -11 4 -14 2 -10 -9 4 -10 -2 -17 -17 -21 -16 -4 -18
-8 -8 -14 10 -7 8 -10 -9 -15 -13 -4 -20 -10 -17 -15 3 -5 -3 -9 -13 -9 -14 0
-15 -2 -5 -9 10 -6 8 -10 -8 -14 -14 -4 -19 -10 -14 -18 5 -9 2 -10 -9 -6 -12
4 -14 2 -10 -10 4 -11 3 -14 -6 -9 -8 5 -14 0 -18 -14 -4 -14 -11 -19 -22 -15
-8 3 -12 3 -9 -1 12 -11 -12 -46 -28 -40 -7 3 -13 2 -13 -2 3 -18 -2 -32 -12
-32 -5 0 -7 5 -3 12 4 7 3 8 -5 4 -6 -4 -10 -10 -8 -14 5 -10 -30 -42 -37 -35
-3 4 -6 -1 -6 -10 0 -9 -5 -19 -12 -23 -7 -5 -9 -2 -4 7 4 8 -2 4 -13 -9 -12
-14 -25 -20 -32 -16 -8 4 -9 3 -5 -4 4 -7 -3 -17 -18 -23 -14 -7 -23 -16 -20
-20 2 -4 -4 -6 -16 -4 -11 2 -19 -1 -17 -7 1 -6 -7 -16 -18 -22 -12 -6 -44
-26 -73 -45 -29 -18 -59 -31 -67 -28 -10 4 -12 1 -8 -10 4 -11 2 -14 -8 -11
-7 2 -23 -4 -33 -14 -11 -10 -26 -16 -33 -14 -7 3 -13 1 -13 -5 0 -6 -4 -7
-10 -4 -5 3 -10 1 -10 -4 0 -6 -3 -10 -7 -9 -5 1 -18 -3 -31 -10 -12 -7 -27
-10 -32 -7 -5 3 -11 1 -14 -4 -4 -5 -17 -8 -31 -7 -13 2 -22 0 -20 -4 6 -10
-22 -17 -57 -16 -14 1 -24 -2 -22 -6 3 -4 -10 -9 -28 -10 -18 -1 -46 -3 -63
-4 -16 -2 -51 -5 -77 -7 -34 -4 -46 -1 -41 7 3 6 0 6 -8 -1 -16 -15 -33 -17
-24 -3 3 6 1 10 -4 10 -6 0 -11 -5 -11 -11 0 -5 -5 -7 -12 -3 -10 6 -45 12
-105 16 -7 1 -13 5 -13 10 0 4 -7 8 -15 8 -8 0 -15 5 -15 11 0 5 -5 7 -10 4
-6 -3 -10 2 -10 12 0 12 -3 14 -8 6 -6 -9 -13 -5 -26 12 -10 14 -24 22 -30 18
-6 -3 -8 -3 -4 1 4 5 -2 18 -13 30 -12 12 -19 30 -16 44 4 19 2 20 -11 10 -13
-10 -14 -10 -8 -1 4 8 2 13 -6 13 -9 0 -9 3 2 10 9 6 11 10 3 10 -7 0 -10 7
-6 17 4 10 2 14 -4 10 -13 -8 -12 11 1 32 7 11 5 13 -6 9 -11 -5 -14 0 -14 17
1 13 6 28 10 32 5 5 6 2 1 -6 -5 -9 -4 -12 3 -8 7 5 7 14 -1 31 -7 13 -15 22
-19 20 -4 -3 -5 2 -2 10 3 9 11 13 18 9 7 -4 7 -1 -1 9 -7 8 -10 18 -6 22 4 4
1 11 -7 16 -10 7 -11 10 -2 10 6 0 12 5 12 11 0 5 -6 7 -12 3 -10 -5 -10 -4
-1 6 6 7 9 19 6 26 -4 10 0 13 13 8 18 -5 18 -5 2 6 -20 12 -25 35 -5 25 6 -4
3 1 -8 11 -20 16 -20 16 3 11 22 -5 23 -4 8 12 -19 20 -20 31 -5 31 5 0 7 -5
3 -12 -4 -6 -3 -8 3 -5 13 8 10 41 -5 59 -9 12 -9 15 3 15 8 0 12 -3 10 -7 -2
-4 2 -7 10 -7 10 0 10 6 -3 26 -16 24 -16 25 2 18 17 -7 17 -6 5 10 -12 15
-12 16 5 10 16 -6 17 -5 6 8 -9 11 -9 15 -1 15 9 0 9 5 0 21 -9 17 -8 20 2 14
9 -6 11 -2 6 14 -5 19 -3 20 11 9 14 -11 15 -10 9 6 -7 17 -6 17 9 5 16 -13
16 -12 6 7 -9 16 -7 22 8 32 13 8 17 18 13 29 -4 11 -3 14 5 9 7 -4 14 3 18
20 5 20 9 23 16 12 7 -9 8 -7 5 9 -4 17 0 23 17 25 11 2 22 9 22 16 1 6 2 16
3 22 0 5 9 7 19 4 14 -5 15 -4 2 5 -13 10 -8 15 12 12 4 0 5 6 1 15 -3 9 0 14
8 12 8 -2 13 3 11 11 -2 9 3 11 15 7 9 -4 14 -4 11 -1 -4 4 9 23 29 42 26 26
37 32 43 23 6 -9 10 -7 15 9 3 11 3 26 -1 32 -4 8 -3 9 4 5 6 -4 23 -4 37 0
21 5 24 9 13 16 -9 7 -6 8 10 5 19 -5 21 -3 11 9 -14 17 2 19 20 2 10 -11 11
-10 5 5 -4 13 -2 16 9 11 8 -3 18 0 23 7 5 8 3 10 -6 4 -9 -5 -11 -4 -6 4 5 7
16 9 28 5 15 -4 18 -3 13 7 -6 9 -2 11 13 7 12 -4 20 -2 16 3 -3 5 0 9 6 9 6
0 8 5 4 11 -5 9 1 10 20 5 18 -4 25 -3 21 4 -3 5 1 10 10 10 9 0 14 4 11 9 -9
14 20 21 34 8 10 -9 11 -9 5 2 -6 11 -3 13 14 8 13 -3 20 -3 17 0 -11 11 15
32 31 26 10 -4 14 -2 10 4 -4 6 0 14 9 17 12 5 14 1 9 -17 -5 -19 -5 -20 5 -4
6 9 17 14 23 11 8 -5 8 -3 0 7 -16 16 -17 29 -2 29 5 0 7 -4 4 -10 -3 -5 -2
-10 3 -10 11 0 26 30 23 43 -1 5 3 6 9 2 6 -3 8 -10 6 -14 -3 -4 -1 -13 5 -21
7 -12 9 -9 9 10 0 20 2 22 10 10 8 -13 14 -8 12 11 -1 3 10 5 23 4 14 -2 26 3
29 12 4 8 13 13 21 10 10 -4 12 -1 8 10 -4 10 -2 14 4 10 6 -4 13 0 16 7 3 8
1 17 -6 20 -7 4 -1 4 11 2 23 -5 24 -4 5 16 -18 21 -18 21 2 14 20 -7 20 -7 0
12 -11 10 -29 18 -40 17 -11 -1 -26 3 -34 9 -11 8 -13 8 -8 -1 6 -9 -4 -11
-33 -9 -24 2 -40 -1 -40 -8 0 -6 -4 -5 -9 3 -5 7 -11 9 -14 4 -4 -5 -23 -11
-44 -12 -72 -4 -88 -7 -100 -14 -8 -5 -13 -3 -13 5 0 8 -5 6 -11 -4 -5 -10
-15 -18 -20 -18 -6 0 -7 6 -3 13 6 8 3 8 -9 -1 -9 -8 -21 -11 -27 -7 -5 3 -10
2 -10 -3 0 -9 -8 -11 -55 -14 -14 -1 -25 -5 -25 -9 0 -10 -82 -29 -93 -22 -6
3 -7 1 -3 -5 4 -7 1 -13 -8 -13 -24 -2 -29 -4 -54 -18 -17 -9 -27 -10 -37 -1
-10 8 -15 8 -21 -1 -4 -8 -3 -9 4 -5 7 4 12 2 12 -4 0 -11 -25 -23 -44 -20 -5
1 -12 -3 -15 -8 -8 -14 -101 -62 -118 -62 -8 0 -11 -5 -8 -10 3 -6 -1 -10 -9
-10 -9 0 -16 -5 -16 -12 0 -6 -3 -9 -6 -5 -3 3 -14 -2 -24 -11 -46 -42 -69
-55 -54 -30 4 7 3 8 -5 4 -6 -4 -9 -11 -6 -16 6 -9 -34 -36 -47 -32 -5 1 -7
-1 -7 -6 3 -18 -2 -32 -12 -32 -5 0 -7 6 -3 13 4 7 3 9 -2 4 -5 -5 -9 -14 -9
-20 -1 -7 -7 -11 -14 -9 -7 1 -10 -2 -7 -7 3 -5 0 -14 -8 -20 -11 -9 -15 -9
-20 1 -4 9 -5 9 -5 -2 2 -31 -1 -40 -17 -40 -9 0 -12 -5 -8 -12 5 -7 2 -9 -9
-5 -12 4 -15 1 -12 -14 3 -15 0 -19 -10 -15 -10 3 -12 0 -8 -11 5 -12 3 -14
-7 -8 -10 6 -12 4 -7 -8 4 -11 1 -17 -9 -17 -8 0 -13 -4 -9 -9 3 -6 -2 -14
-11 -19 -9 -5 -16 -13 -17 -18 -1 -5 -8 -8 -17 -6 -13 2 -13 2 0 -7 13 -9 12
-12 -5 -26 -11 -9 -13 -14 -5 -10 13 6 13 5 0 -7 -8 -7 -16 -20 -18 -28 -2 -8
-10 -20 -18 -26 -12 -10 -12 -13 -2 -17 8 -3 6 -6 -6 -6 -15 -1 -16 -3 -6 -17
11 -13 10 -16 -9 -21 -17 -4 -19 -8 -9 -14 11 -7 11 -9 -1 -9 -11 0 -11 -3 -1
-15 10 -12 8 -16 -11 -24 -13 -5 -18 -10 -11 -10 6 -1 12 -6 12 -12 0 -5 -4
-8 -9 -5 -14 9 -19 -15 -10 -47 7 -25 6 -28 -9 -22 -9 3 -13 3 -9 -1 4 -4 -1
-17 -10 -28 -18 -21 -18 -21 3 -3 20 17 21 16 18 -5 -1 -13 -3 -29 -3 -35 -1
-7 -8 -13 -17 -13 -8 0 -12 -5 -9 -10 4 -6 10 -8 14 -6 4 3 8 -2 8 -10 0 -8
-6 -13 -12 -10 -6 2 -12 -2 -12 -10 0 -9 6 -13 16 -9 11 4 10 0 -5 -16 -10
-12 -13 -19 -7 -15 8 4 13 1 13 -9 0 -9 -4 -14 -8 -11 -5 3 -9 -2 -9 -10 0 -9
6 -13 15 -9 11 4 12 2 4 -8 -8 -10 -8 -17 -1 -24 8 -8 7 -13 -2 -18 -8 -5 -10
-4 -5 3 4 7 2 12 -3 12 -16 0 -13 -11 7 -33 9 -11 12 -17 5 -14 -6 4 -14 3
-17 -2 -3 -5 2 -11 12 -13 10 -3 19 -12 19 -21 0 -9 -4 -14 -8 -12 -4 3 -10
-2 -13 -11 -3 -8 -2 -12 4 -9 6 3 10 2 10 -4 0 -6 8 -8 17 -5 10 3 7 -1 -6 -9
-20 -12 -21 -15 -7 -20 11 -5 15 -3 10 5 -5 7 -3 8 5 4 7 -5 10 -11 7 -14 -3
-3 2 -15 11 -26 17 -20 17 -20 1 -7 -13 9 -18 10 -18 2 0 -6 7 -14 15 -17 8
-4 15 -12 15 -19 0 -7 6 -16 13 -19 6 -3 1 -3 -13 0 -19 4 -22 3 -10 -5 8 -6
24 -11 35 -12 11 0 14 -3 8 -6 -7 -2 -13 -9 -13 -14 0 -6 5 -7 10 -4 9 5 15
-24 11 -48 -1 -5 3 -6 9 -2 6 3 8 10 6 14 -3 4 1 8 9 8 8 0 14 -3 13 -6 -2
-20 3 -31 12 -26 6 3 10 -1 10 -10 0 -9 -4 -13 -10 -10 -5 3 -10 1 -10 -4 0
-15 13 -14 29 2 11 9 13 9 7 0 -4 -7 -2 -13 4 -13 6 0 8 -4 5 -10 -5 -9 14
-15 37 -11 4 0 5 -9 3 -20 -4 -17 -2 -19 11 -8 12 10 13 9 8 -5 -5 -12 -2 -15
12 -9 14 5 16 3 10 -12 -4 -11 -4 -16 0 -13 4 4 15 3 25 -2 12 -7 20 -7 24 0
3 5 12 10 18 10 7 0 6 -4 -3 -10 -11 -7 -11 -10 -2 -10 8 0 10 -5 6 -13 -6 -9
-5 -9 7 0 13 10 19 10 35 -3 18 -15 18 -15 -2 -5 -15 7 -21 7 -21 -2 0 -7 13
-12 28 -12 16 -1 25 4 23 10 -3 5 2 1 10 -9 12 -15 16 -16 17 -5 0 8 4 6 9 -6
6 -14 9 -15 10 -5 1 10 4 9 10 -5 l9 -20 1 20 c1 18 2 18 16 -5 8 -14 13 -17
10 -8 -3 12 -1 15 9 11 8 -3 12 -10 8 -17 -4 -6 2 -4 12 4 10 8 16 10 12 3 -4
-6 -2 -15 4 -19 8 -4 9 -3 5 4 -4 7 -3 12 3 12 5 0 12 -4 15 -8 3 -5 23 -8 46
-6 28 2 38 -1 34 -9 -4 -7 1 -4 11 5 12 11 15 21 9 30 -5 8 -2 7 6 -2 8 -8 24
-22 35 -30 15 -12 17 -12 10 -1 -6 11 -4 13 8 8 10 -4 17 -2 17 5 0 6 6 5 17
-3 10 -8 14 -9 10 -2 -4 6 -3 14 3 18 5 3 10 2 10 -3 0 -6 7 -13 16 -16 13 -5
14 -4 6 7 -9 10 -8 14 3 14 8 0 15 -3 15 -7 0 -4 7 -7 15 -7 13 0 13 3 -1 18
-10 11 -12 19 -4 24 6 4 9 1 8 -7 -2 -7 5 -12 14 -12 10 1 15 -2 12 -7 -10
-16 8 -9 21 8 9 13 14 13 20 3 6 -9 4 -11 -5 -5 -9 5 -11 4 -6 -4 6 -9 11 -9
21 -1 8 7 19 9 25 5 13 -8 52 19 42 31 -4 4 1 2 11 -5 14 -11 20 -12 30 -2 9
10 8 11 -8 6 l-20 -6 20 10 c63 30 105 35 98 12 -3 -11 -1 -10 7 3 10 15 9 20
-1 27 -11 7 -11 9 -1 9 7 0 15 -6 18 -14 6 -17 29 -15 47 4 10 10 9 11 -3 5
-12 -7 -13 -6 -2 6 8 9 15 10 20 4 15 -21 29 -13 25 13 -3 24 -3 25 6 6 12
-27 28 -38 28 -19 0 8 -5 11 -10 8 -6 -3 -7 -1 -3 6 6 9 11 9 21 1 8 -7 15 -7
19 -1 4 5 19 8 34 5 19 -3 23 -2 12 5 -8 5 -17 8 -21 5 -4 -2 -13 4 -20 13
-12 15 -12 16 1 8 21 -13 39 -15 46 -4 3 5 11 9 17 9 8 0 8 -3 -1 -9 -11 -7
-11 -9 2 -14 9 -4 15 -1 13 5 -1 6 4 13 12 16 9 3 11 0 6 -8 -6 -9 -4 -11 4
-6 7 5 10 14 8 20 -3 7 1 13 9 13 7 0 11 -3 9 -7 -2 -3 5 -6 15 -6 15 0 16 3
8 14 -6 7 -7 12 -2 11 25 -4 54 2 49 11 -3 5 1 10 10 10 10 0 14 -5 9 -12 -6
-10 -4 -10 7 -1 16 16 33 17 23 1 -4 -7 -3 -8 4 -4 6 4 9 13 6 20 -3 8 0 17 7
22 7 4 10 3 6 -3 -3 -5 0 -10 8 -10 8 0 14 3 13 6 -2 19 4 24 12 11 8 -13 10
-13 10 2 0 9 5 20 12 24 6 4 8 3 4 -4 -3 -6 -1 -14 5 -18 7 -4 9 -3 6 3 -4 6
5 15 19 22 14 6 22 16 19 21 -4 6 1 7 11 3 13 -5 15 -3 9 8 -7 12 -6 12 7 1
14 -11 20 -9 39 10 12 13 19 16 15 8 -5 -9 -2 -9 7 2 8 10 18 14 22 10 4 -4 5
0 3 8 -3 8 -11 14 -17 12 -7 -1 -10 2 -6 8 5 8 11 8 20 0 14 -12 45 -3 45 12
0 6 7 4 17 -3 15 -13 15 -12 3 11 -12 22 -11 23 1 13 12 -10 18 -9 29 7 7 10
22 17 32 15 16 -3 17 -1 8 10 -9 11 -7 12 11 8 14 -4 20 -2 16 4 -4 6 7 16 23
23 16 7 27 16 24 21 -3 5 4 9 15 9 11 0 23 5 26 10 4 6 10 8 15 5 5 -3 7 4 5
15 -3 17 0 20 17 14 14 -4 18 -2 14 5 -4 6 0 11 11 11 15 0 16 2 3 10 -13 8
-12 10 3 10 12 0 16 4 11 13 -6 9 -4 9 8 -1 13 -10 18 -10 24 -1 4 8 3 9 -4 5
-7 -4 -12 -2 -12 5 0 7 8 9 21 6 17 -5 18 -3 7 11 -11 14 -10 15 5 9 12 -5 16
-3 11 5 -5 8 -2 9 10 5 11 -5 15 -3 10 5 -5 8 -2 9 10 5 9 -4 15 -3 12 2 -3 5
1 11 9 15 8 3 12 12 9 21 -4 11 0 15 16 15 14 0 19 4 14 12 -5 8 -2 9 12 4 10
-4 15 -4 12 0 -4 4 -2 16 4 28 7 11 11 25 10 29 -1 5 2 6 8 2 8 -5 8 -11 0
-20 -8 -9 -8 -15 0 -20 6 -4 9 -3 8 2 -4 13 30 56 40 50 5 -4 9 0 9 8 0 8 -4
12 -9 9 -4 -3 -8 -1 -8 4 0 5 9 12 21 15 12 3 18 10 14 16 -3 6 0 9 8 5 8 -3
18 0 22 5 3 6 10 9 14 7 4 -3 6 10 5 27 -2 30 -1 31 12 13 13 -18 14 -18 14
-2 0 10 4 14 12 10 7 -4 8 -3 4 5 -4 6 -12 8 -18 5 -7 -4 -8 -2 -4 5 4 6 15
10 23 9 9 -2 18 3 20 10 3 7 -1 10 -11 6 -9 -3 -16 -2 -16 3 0 8 14 12 57 15
7 1 10 5 7 10 -3 5 -10 5 -16 2 -7 -4 -8 -2 -4 4 4 7 15 12 24 12 15 0 15 2 2
10 -11 7 -11 10 -2 10 7 0 10 5 6 11 -4 7 2 6 17 -2 21 -11 22 -10 12 2 -10
12 -9 18 7 29 10 7 16 18 13 24 -4 5 0 7 8 4 15 -5 51 26 42 36 -3 3 -12 -2
-20 -12 -13 -15 -13 -14 -3 6 7 13 14 21 17 18 11 -10 42 25 36 40 -3 10 2 14
18 14 19 0 21 2 9 10 -14 9 -7 15 14 11 5 -1 3 5 -4 14 -11 13 -10 15 3 10 8
-4 18 -1 23 6 5 8 3 10 -7 5 -8 -4 -5 0 5 8 11 9 24 16 30 16 5 0 6 3 3 7 -4
3 0 14 9 24 17 19 10 44 -8 33 -6 -4 -8 -2 -5 4 4 5 16 8 27 5 14 -4 20 0 20
12 0 12 5 15 18 11 14 -5 14 -4 -2 9 -18 13 -18 15 -3 16 30 2 35 4 43 11 3 4
-2 6 -13 4 -13 -3 -19 2 -19 14 0 13 4 16 12 9 7 -6 17 -2 28 10 17 18 17 20
-1 30 -24 14 -7 14 20 0 18 -9 20 -9 10 2 -15 16 -17 33 -3 24 6 -3 10 1 10
10 0 10 5 13 13 9 7 -5 7 -2 -2 10 -12 15 -12 17 0 14 8 -2 13 3 11 11 -2 9 3
11 15 7 9 -4 14 -4 10 0 -4 4 1 16 10 27 10 11 12 17 6 13 -7 -4 -13 -2 -13 3
0 6 8 11 17 11 9 0 13 3 10 7 -4 3 1 12 11 20 9 8 12 12 5 9 -20 -11 -10 33
11 52 20 16 20 16 7 -1 -12 -15 -12 -17 3 -11 9 3 16 10 16 15 0 18 2 24 12
37 8 9 6 11 -8 6 -18 -5 -18 -5 -1 6 13 8 15 15 8 24 -8 9 -7 13 4 13 8 0 12
-4 9 -9 -3 -4 -1 -8 4 -8 12 0 24 29 16 41 -3 5 0 9 7 9 8 0 8 4 -1 16 -8 8
-9 14 -4 13 5 -1 18 -1 29 0 19 2 19 2 2 15 -16 12 -16 14 -2 20 11 4 14 2 9
-6 -5 -7 -3 -8 5 -4 7 5 10 14 7 22 -5 13 6 19 27 15 5 -1 6 3 2 9 -4 6 -2 17
5 25 7 9 8 15 0 20 -5 3 -10 12 -10 18 0 8 3 8 8 2 4 -5 14 -11 22 -13 12 -3
12 0 -1 15 -9 10 -14 24 -12 31 4 11 7 11 17 0 6 -7 10 -11 9 -9 -2 2 3 11 10
19 9 13 9 14 0 8 -7 -4 -13 -2 -13 3 0 6 6 11 13 11 7 0 14 8 15 18 2 18 9 53
12 62 1 3 2 9 1 13 -1 5 3 6 9 2 8 -5 8 -11 0 -20 -8 -9 -8 -15 0 -20 6 -4 10
-3 9 2 -1 4 -1 10 1 13 9 25 8 50 -2 44 -7 -4 -8 -3 -4 5 4 6 12 9 17 5 6 -3
8 5 5 20 -3 15 -1 24 5 21 5 -4 7 -10 4 -15 -3 -5 -2 -11 3 -14 4 -2 9 6 10
20 3 48 5 52 20 46 11 -4 13 -2 6 9 -13 21 -15 49 -3 49 5 0 7 -4 4 -10 -3 -5
1 -10 10 -10 12 0 14 4 5 19 -7 14 -7 22 2 27 7 5 8 3 3 -6 -6 -9 -4 -11 4 -6
7 5 10 14 7 22 -3 8 -1 14 3 14 5 0 8 11 7 25 -2 13 0 24 3 23 3 0 13 0 21 1
13 1 13 2 0 11 -11 7 -11 10 -2 10 7 0 11 4 8 9 -3 5 1 12 10 15 8 3 12 11 9
16 -4 6 -1 17 5 25 6 8 8 20 4 26 -5 8 -3 9 6 4 10 -6 12 -4 7 8 -4 11 -1 17
7 17 10 0 12 7 8 23 -5 20 -4 21 11 8 15 -12 17 -12 11 3 -3 9 -11 16 -18 17
-6 0 0 5 14 11 15 6 20 12 13 15 -7 3 -13 9 -13 14 0 6 5 7 10 4 6 -3 10 -1
10 5 0 6 5 8 13 4 9 -6 9 -4 -1 8 -10 13 -10 18 -1 24 8 5 9 3 4 -6 -5 -8 -4
-11 3 -7 12 8 4 47 -10 47 -5 0 -6 5 -3 11 5 6 11 4 19 -7 12 -16 13 -16 20 1
3 10 2 23 -4 30 -7 8 -5 18 6 31 15 18 15 18 5 -2 -7 -15 -7 -21 3 -21 8 0 12
12 11 31 -3 40 4 58 19 49 6 -4 5 1 -3 11 -11 13 -11 16 -1 14 7 -2 15 3 18
11 3 10 0 11 -9 5 -11 -6 -10 -3 1 12 8 10 20 22 25 26 6 5 5 8 -2 8 -7 0 -13
4 -13 10 0 5 7 7 16 3 14 -5 15 -3 4 18 -12 22 -12 23 4 10 15 -12 16 -12 9 5
-6 17 -5 18 13 4 18 -14 18 -13 -1 9 -11 14 -14 21 -6 16 11 -6 13 -4 8 9 -5
11 -3 15 5 10 7 -5 9 1 4 19 -3 14 -1 29 4 32 6 4 7 11 4 17 -4 7 -2 8 5 4 9
-6 9 -11 0 -22 -10 -12 -9 -17 0 -27 10 -9 11 -8 6 4 -4 10 -2 20 4 23 6 4 6
16 -1 37 -6 16 -8 33 -4 36 3 4 6 -1 6 -10 0 -9 5 -19 11 -23 8 -4 9 1 4 16
-5 15 -3 20 3 16 7 -4 9 3 6 20 -3 16 -1 23 6 19 14 -9 13 8 -2 24 -11 10 -10
11 3 6 10 -4 19 0 23 10 3 9 2 14 -2 11 -4 -2 -9 4 -9 15 -2 17 0 18 13 4 20
-20 30 -19 14 0 -11 13 -10 18 6 30 13 11 14 13 3 10 -9 -4 -16 0 -16 9 0 8 6
12 13 9 6 -2 15 1 20 8 4 8 3 10 -4 5 -16 -10 -15 2 2 19 7 8 17 11 21 7 5 -4
5 -1 1 6 -6 9 -11 10 -20 3 -9 -8 -13 -7 -13 4 0 7 5 13 11 12 13 -3 15 26 1
36 -5 5 1 5 15 1 23 -6 24 -6 10 11 -14 17 -13 18 3 12 9 -3 17 -2 17 3 0 6
-4 10 -10 10 -5 0 -10 5 -10 11 0 6 6 9 14 6 11 -4 13 0 11 15 -5 25 12 51 28
41 6 -3 7 -1 3 6 -4 6 -12 9 -17 5 -6 -3 -5 3 2 14 7 12 17 18 23 15 5 -4 6
-1 1 7 -5 7 -9 27 -11 43 -1 19 1 25 7 16 10 -17 18 -9 21 24 1 14 6 23 10 21
4 -3 8 0 8 6 0 6 5 8 13 4 8 -5 7 -2 -2 9 -12 15 -12 20 5 32 14 12 15 14 3 9
-10 -3 -20 0 -24 6 -3 6 -3 10 2 9 25 -4 35 1 24 14 -11 14 -5 27 13 27 6 0 4
-5 -4 -11 -13 -9 -13 -10 0 -6 8 2 13 11 12 18 -10 36 -12 63 -5 54 5 -5 14
-11 22 -13 12 -3 12 0 1 12 -8 10 -9 16 -2 16 7 0 9 7 5 17 -4 9 -2 14 3 10 6
-3 9 8 8 28 -2 19 1 37 7 40 5 4 6 12 2 18 -4 7 0 7 10 -1 14 -12 16 -11 12 7
-2 12 1 21 6 21 6 0 7 5 4 10 -4 6 -11 7 -17 4 -7 -4 -8 -2 -4 4 4 6 13 9 21
5 11 -4 13 -1 9 11 -5 12 -2 15 12 10 17 -6 17 -5 -1 9 -11 9 -15 17 -7 17 6
0 12 9 12 21 0 11 4 17 10 14 6 -3 7 1 4 10 -5 11 -2 14 12 9 15 -5 16 -4 4 4
-12 9 -12 13 2 29 20 24 20 52 -1 47 -9 -3 -7 0 4 6 28 15 52 53 36 58 -6 2
-11 8 -11 13 0 6 5 7 10 4 6 -3 10 0 10 9 0 8 -5 16 -10 18 -6 2 0 9 12 17 21
13 22 13 10 -2 -11 -12 -11 -17 0 -23 7 -4 10 -3 5 1 -4 5 0 16 9 26 12 13 12
19 3 25 -8 5 -10 3 -4 -6 5 -8 4 -11 -3 -6 -6 4 -9 13 -6 21 4 8 10 12 15 9 5
-3 6 3 2 12 -4 12 -3 15 5 10 7 -4 12 -4 13 1 0 4 2 16 4 26 2 10 -1 15 -8 11
-7 -3 -3 2 7 10 11 9 16 16 10 16 -5 0 -2 5 6 10 8 5 10 10 4 10 -6 0 -11 7
-11 15 0 11 4 12 14 3 11 -9 12 -7 7 7 -5 13 -4 16 4 11 8 -5 10 -1 5 10 -5
13 -3 15 8 9 11 -6 12 -5 2 5 -10 11 -9 16 4 26 15 10 16 14 3 30 -9 11 -10
15 -2 10 6 -4 12 -3 12 1 0 5 -6 15 -12 23 -7 8 -4 7 8 -3 17 -14 21 -15 21
-2 0 8 -4 15 -8 15 -5 0 -6 7 -3 15 4 8 10 15 16 15 5 0 6 -5 2 -12 -5 -7 -3
-8 5 -4 9 6 8 13 -5 27 -9 11 -14 22 -11 26 4 3 7 1 7 -5 0 -7 5 -12 11 -12 5
0 8 4 5 9 -3 5 0 11 8 14 7 3 13 16 12 29 -1 26 14 49 28 40 5 -3 6 0 2 7 -5
7 -13 9 -20 4 -7 -4 0 2 14 15 l25 24 -25 -7 c-24 -7 -24 -7 -5 8 11 8 24 13
29 10 5 -4 6 -1 2 6 -4 6 -11 9 -16 6 -5 -3 -12 -1 -15 5 -4 6 -3 10 2 9 23
-4 47 2 36 9 -7 4 -11 17 -10 29 0 12 5 20 9 17 4 -3 4 -12 1 -21 -6 -15 -5
-16 9 -3 9 8 12 17 8 20 -4 3 -7 13 -7 22 0 14 3 15 14 6 10 -8 12 -7 8 5 -4
8 -2 18 4 21 6 4 7 14 4 23 -4 10 -2 14 4 10 13 -8 11 19 -2 30 -4 4 -5 2 0
-6 6 -10 4 -12 -4 -7 -13 8 -3 28 28 53 17 14 27 58 11 48 -6 -3 -7 1 -4 10 4
9 12 14 19 11 9 -3 12 4 8 25 -3 23 0 29 13 29 16 0 16 1 -2 16 -10 8 -13 12
-5 8 7 -3 17 0 22 7 13 21 11 29 -8 23 -17 -5 -17 -5 0 6 10 6 14 16 10 23 -4
7 1 6 10 -2 10 -8 20 -11 24 -7 3 3 2 6 -4 6 -6 0 -13 9 -16 21 -5 17 -3 18
10 7 15 -12 15 -10 3 12 -11 22 -11 23 1 13 12 -10 14 -8 14 11 -1 12 -5 29
-10 37 -5 7 2 5 15 -6 13 -11 20 -14 15 -6 -4 8 -2 17 6 23 11 8 11 9 -1 5
-10 -3 -16 2 -16 14 0 13 4 15 12 8 9 -8 12 -4 10 15 -2 14 1 23 6 20 5 -3 7
6 4 20 -3 15 -1 24 3 22 4 -3 13 -1 21 5 9 5 10 9 3 9 -6 0 -11 9 -10 20 1 11
7 19 13 17 7 -1 13 1 13 6 2 23 0 27 -11 21 -10 -6 -10 -5 -1 8 7 8 10 17 7
21 -3 3 5 3 18 0 23 -5 23 -5 3 10 -19 15 -19 16 -2 17 17 0 17 1 3 16 -9 8
-14 19 -11 24 3 4 -13 17 -35 29 -22 11 -40 18 -40 15 0 -4 -6 -2 -13 4 -8 7
-18 7 -27 2 -8 -5 -22 -4 -33 1 -13 7 -23 7 -33 -2 -9 -7 -14 -8 -14 -1 0 10
-44 7 -62 -4 -4 -3 -8 0 -8 6 0 6 -5 8 -11 5 -16 -10 -69 -12 -63 -3 3 4 0 8
-5 8 -6 0 -11 -3 -11 -8 0 -7 -68 -14 -132 -14 -16 0 -25 -5 -22 -10 4 -6 -3
-5 -14 1 -15 8 -23 8 -27 0 -4 -6 -13 -8 -21 -5 -8 3 -14 1 -14 -4 0 -6 -4 -9
-9 -8 -5 2 -17 -6 -26 -17 -9 -11 -14 -14 -10 -7 11 21 -4 13 -16 -9 -9 -17
-8 -20 3 -13 11 6 11 5 -1 -9 -7 -9 -17 -14 -22 -11 -5 3 -6 -3 -2 -12 4 -11
3 -15 -4 -11 -7 5 -9 -1 -5 -15 3 -14 2 -19 -6 -14 -7 4 -13 1 -13 -8 -1 -9
-3 -20 -4 -26 -1 -5 -3 -15 -4 -21 0 -5 -5 -8 -10 -4 -5 3 -12 1 -16 -5 -3 -5
-1 -10 4 -10 17 0 13 -18 -9 -40 -11 -11 -20 -22 -20 -25 0 -3 0 -10 0 -16 0
-5 -4 -7 -10 -4 -5 3 -10 1 -10 -4 0 -6 6 -11 13 -11 9 0 8 -3 -2 -9 -7 -5
-10 -14 -7 -20 4 -6 3 -11 -2 -11 -12 0 -33 -56 -25 -64 4 -3 0 -6 -7 -6 -7 0
-10 -3 -7 -7 4 -3 -1 -12 -11 -20 -10 -9 -11 -11 -2 -7 13 7 13 5 1 -9 -7 -9
-10 -17 -5 -17 4 0 -1 -7 -12 -16 -10 -8 -13 -13 -7 -9 9 4 11 1 7 -9 -3 -9
-9 -14 -14 -11 -4 2 -5 -7 -2 -20 3 -19 -1 -27 -19 -34 -21 -8 -21 -10 -5 -10
20 -1 20 -1 0 -17 -10 -8 -13 -13 -7 -9 9 4 11 1 7 -9 -3 -9 -10 -14 -14 -11
-4 3 -11 -2 -14 -11 -4 -9 -2 -13 5 -8 7 4 10 1 7 -7 -3 -8 -11 -13 -18 -11
-11 3 -11 0 0 -12 8 -11 9 -16 1 -16 -6 0 -10 -6 -9 -12 2 -7 -3 -12 -10 -10
-10 2 -11 -2 -4 -15 8 -13 6 -21 -6 -31 -13 -10 -13 -12 -2 -7 8 4 4 -3 -10
-15 -14 -12 -19 -19 -12 -15 15 8 16 -21 0 -31 -7 -5 -8 -3 -3 6 5 9 4 11 -4
6 -9 -6 -9 -11 0 -22 8 -10 8 -14 1 -14 -7 0 -9 -8 -5 -17 6 -15 4 -16 -8 -6
-11 9 -14 7 -14 -12 0 -13 3 -21 7 -19 4 3 5 -2 2 -10 -3 -9 -11 -13 -18 -9
-6 3 -8 3 -4 -2 4 -4 3 -17 -3 -28 -8 -15 -8 -18 1 -12 8 5 8 0 -1 -16 -8 -13
-14 -28 -15 -34 0 -5 -4 -20 -8 -33 -7 -20 -10 -21 -24 -10 -11 9 -10 5 4 -17
18 -27 18 -29 1 -22 -10 4 -16 3 -12 -2 3 -5 1 -13 -5 -16 -8 -5 -7 -12 2 -23
11 -13 11 -15 -4 -10 -16 6 -20 -13 -6 -28 11 -10 -3 -34 -21 -35 -10 0 -11
-2 -3 -6 6 -2 12 -9 12 -15 0 -6 -7 -8 -14 -5 -10 4 -13 1 -9 -9 7 -20 -6 -66
-17 -59 -6 4 -7 -3 0 -19 6 -17 6 -27 -2 -32 -7 -4 -8 -3 -4 4 4 7 5 12 2 12
-3 0 -10 -10 -17 -21 -6 -12 -7 -19 -1 -16 5 4 7 -4 4 -18 -2 -14 -8 -28 -13
-31 -5 -3 -9 -13 -9 -24 0 -10 -7 -21 -16 -24 -13 -5 -14 -9 -4 -21 9 -11 9
-15 1 -15 -7 0 -9 -5 -6 -11 4 -6 -3 -21 -15 -34 -15 -16 -18 -25 -10 -30 8
-5 5 -12 -9 -21 -21 -15 -18 -50 3 -37 6 4 5 -1 -3 -10 -11 -14 -17 -15 -30
-5 -12 9 -11 7 2 -8 16 -20 17 -22 1 -28 -13 -5 -14 -9 -5 -20 9 -11 9 -16 0
-22 -8 -5 -9 -3 -4 6 5 9 4 11 -4 6 -9 -6 -9 -11 0 -22 9 -11 9 -14 -1 -14 -7
0 -10 -7 -6 -16 5 -13 3 -14 -7 -6 -10 8 -13 6 -13 -8 0 -10 5 -16 11 -12 5 3
5 -1 -2 -9 -6 -8 -12 -18 -13 -24 -1 -5 -4 -12 -7 -15 -4 -3 -2 2 2 10 8 13 7
13 -8 1 -18 -14 -22 -22 -9 -20 21 4 22 -3 1 -22 -13 -11 -18 -18 -11 -14 18
9 15 -6 -5 -22 -10 -8 -12 -12 -5 -8 6 3 12 1 12 -4 0 -6 -4 -11 -10 -11 -5 0
-10 -9 -10 -19 0 -11 -5 -23 -11 -26 -6 -4 -8 -13 -5 -21 3 -7 0 -16 -6 -20
-7 -5 -8 -2 -3 6 5 8 4 11 -3 7 -5 -4 -8 -16 -5 -27 4 -15 0 -20 -13 -20 -16
0 -17 -2 -4 -10 14 -9 7 -15 -15 -10 -5 1 -4 -4 3 -11 17 -18 15 -30 -3 -23
-11 5 -13 2 -9 -10 3 -9 1 -16 -5 -16 -6 0 -8 -6 -5 -14 3 -7 -6 -34 -20 -58
-14 -25 -22 -49 -18 -53 4 -5 1 -5 -7 0 -9 5 -12 3 -9 -6 3 -8 -2 -20 -11 -27
-13 -11 -13 -12 -1 -7 12 5 12 4 -1 -7 -9 -7 -14 -19 -11 -27 3 -9 0 -11 -8
-6 -10 6 -12 4 -7 -8 4 -12 1 -17 -11 -17 -15 0 -15 -2 -2 -10 12 -7 12 -10 1
-10 -7 0 -11 -6 -7 -15 7 -18 -10 -20 -17 -2 -3 6 -3 -3 0 -21 5 -28 3 -31
-12 -25 -13 5 -16 3 -10 -6 4 -8 2 -17 -6 -22 -8 -4 -14 -14 -14 -21 -1 -7 -7
-12 -14 -10 -7 1 -10 -2 -6 -8 3 -6 12 -7 18 -3 16 9 -11 -25 -43 -55 -14 -13
-19 -20 -11 -16 11 5 13 3 8 -10 -4 -10 -7 -20 -7 -22 0 -3 -5 -2 -12 2 -8 5
-9 2 -5 -10 6 -14 3 -17 -9 -12 -14 5 -15 4 -4 -9 9 -11 9 -15 1 -15 -7 0 -9
-5 -5 -12 5 -7 2 -9 -8 -5 -12 4 -14 1 -11 -13 3 -11 -4 -24 -17 -33 -12 -8
-19 -20 -15 -26 3 -6 1 -11 -4 -11 -6 0 -11 -7 -11 -15 0 -8 -5 -15 -11 -15
-5 0 -7 5 -3 12 4 7 3 8 -4 4 -6 -4 -8 -14 -5 -23 5 -12 3 -14 -7 -8 -9 5 -11
4 -6 -4 9 -15 -32 -73 -46 -65 -7 5 -8 2 -4 -5 5 -7 0 -19 -10 -27 -11 -9 -13
-13 -7 -9 8 4 11 1 7 -9 -3 -8 -12 -12 -19 -9 -10 3 -13 -1 -10 -16 2 -13 -3
-22 -16 -26 -11 -4 -17 -11 -14 -16 4 -5 1 -9 -5 -9 -6 0 -8 -4 -5 -10 6 -9
-8 -14 -28 -11 -5 1 -6 -3 -2 -9 8 -13 -14 -42 -26 -34 -5 3 -6 -3 -2 -12 4
-11 3 -15 -5 -10 -6 3 -13 -3 -17 -14 -3 -11 -11 -20 -16 -20 -5 0 -9 -7 -9
-16 0 -10 -6 -14 -15 -10 -8 3 -14 0 -12 -7 1 -7 -4 -11 -11 -9 -8 1 -11 -2
-7 -8 7 -12 -44 -62 -56 -55 -4 3 -11 0 -15 -6 -4 -8 -3 -9 4 -5 7 4 12 2 12
-3 0 -6 -7 -11 -15 -11 -8 0 -15 -5 -15 -11 0 -5 -5 -7 -12 -3 -7 4 -8 3 -4
-4 4 -8 -3 -16 -18 -22 -14 -5 -26 -12 -26 -15 0 -4 6 -3 13 0 6 3 4 0 -6 -7
-10 -7 -28 -21 -39 -30 -11 -10 -25 -15 -31 -11 -6 3 -7 1 -3 -5 7 -11 -6 -17
-27 -13 -5 1 -6 -2 -3 -7 6 -9 -46 -52 -64 -52 -5 0 -10 -4 -10 -8 0 -10 -56
-43 -64 -37 -3 3 -4 2 -1 -2 5 -6 -24 -32 -38 -33 -5 0 -5 6 -1 13 4 7 3 9 -2
4 -5 -5 -9 -14 -9 -20 0 -7 -9 -13 -19 -15 -11 -2 -26 -10 -34 -18 -7 -8 -18
-12 -23 -9 -5 4 -9 1 -9 -5 0 -16 -43 -30 -52 -16 -5 7 -8 5 -8 -6 0 -18 -3
-19 -52 -22 -15 -1 -30 -5 -34 -9 -13 -12 -46 -8 -39 6 4 6 0 4 -8 -6 -10 -12
-17 -15 -22 -7 -4 6 -12 7 -18 2 -10 -7 -32 -9 -39 -3 -2 1 -21 4 -44 5 -46 4
-112 23 -133 40 -8 6 -16 10 -17 9 -11 -7 -34 12 -30 23 3 9 0 11 -11 7 -12
-5 -14 -3 -8 7 5 9 4 11 -4 6 -15 -10 -43 13 -34 27 3 5 2 7 -4 4 -11 -7 -65
48 -56 57 4 3 1 6 -6 6 -8 0 -11 6 -7 16 3 8 2 12 -4 9 -6 -3 -10 -1 -10 5 0
6 -5 8 -11 4 -8 -4 -8 0 0 15 9 16 9 21 1 19 -7 -2 -19 7 -27 20 -13 18 -13
22 -2 19 8 -2 11 -2 6 1 -4 2 -12 13 -18 24 -8 15 -8 19 0 14 6 -4 11 -2 11 3
0 6 -7 11 -15 11 -12 0 -13 4 -6 19 8 14 7 22 -4 31 -16 13 -9 43 9 34 6 -3 0
3 -13 14 -18 14 -21 21 -11 27 9 6 11 4 5 -5 -5 -9 -4 -11 3 -6 9 5 7 15 -5
34 l-17 27 24 -20 c18 -14 21 -15 11 -3 -7 9 -9 23 -5 29 5 9 2 10 -12 6 -18
-7 -18 -7 0 8 20 15 20 15 0 15 -14 1 -12 4 11 15 25 12 26 14 5 9 l-25 -6 25
27 c14 14 21 26 15 25 -24 -5 -27 1 -9 16 10 8 14 13 8 10 -7 -3 -15 1 -18 10
-3 8 -2 13 3 10 11 -7 23 22 15 36 -4 6 1 17 11 25 11 7 14 13 8 13 -7 0 -11
9 -10 19 1 15 4 17 14 9 19 -16 16 -2 -4 18 -17 17 -17 17 4 12 16 -4 20 -2
16 8 -3 8 -8 12 -12 9 -4 -2 -8 2 -8 9 0 8 6 12 13 9 6 -2 15 1 20 8 4 7 3 10
-3 6 -11 -7 -28 22 -18 31 3 3 5 0 5 -6 0 -7 7 -12 15 -12 8 0 15 5 15 11 0 5
-6 7 -12 3 -8 -5 -7 0 2 11 10 13 11 16 2 11 -11 -7 -11 -4 -1 12 7 12 17 18
21 16 4 -3 4 6 -2 20 -6 17 -6 27 2 32 6 4 8 3 4 -4 -3 -6 -2 -13 3 -16 10 -7
9 13 -2 31 -4 6 -3 14 3 18 6 4 8 11 5 16 -3 5 1 6 11 2 13 -5 15 -3 6 13 -12
22 6 54 29 54 8 0 10 3 4 8 -16 11 -14 42 2 42 8 0 12 -4 8 -9 -3 -5 -1 -12 4
-16 9 -5 5 40 -5 56 -7 12 27 40 39 32 7 -4 6 1 -2 10 -7 9 -18 14 -25 10 -6
-3 0 6 13 20 13 15 29 23 35 20 6 -4 4 2 -4 12 -9 11 -10 16 -2 11 6 -4 12 -3
12 3 0 5 -6 12 -12 15 -7 4 -3 4 9 2 15 -2 23 2 26 16 5 16 3 17 -9 7 -8 -6
-17 -9 -21 -5 -3 3 -1 6 6 6 8 0 10 8 6 23 -5 17 -4 19 4 7 9 -13 12 -13 23
-1 10 10 10 12 1 7 -7 -4 -13 -2 -13 3 0 6 8 11 18 12 11 0 12 2 4 6 -10 4 -9
9 5 20 10 8 13 12 7 9 -6 -3 -11 1 -11 9 0 8 4 12 8 9 4 -2 10 0 14 6 4 6 11
7 17 4 7 -4 8 -2 4 5 -4 6 -12 9 -17 6 -16 -11 -10 7 9 22 11 10 12 12 2 8 -8
-4 -6 1 4 9 12 10 20 29 20 50 1 26 4 32 14 24 9 -8 11 -7 6 7 -5 12 -4 16 4
11 6 -3 13 -2 17 4 3 6 -4 10 -17 10 -18 0 -20 2 -8 9 8 6 17 8 21 5 4 -2 11
1 15 7 4 7 3 9 -4 5 -6 -3 -13 -2 -17 4 -3 6 4 10 17 11 13 0 17 3 11 6 -7 2
-13 9 -13 14 0 6 4 8 9 5 5 -3 9 6 9 20 0 14 9 39 22 56 12 16 19 36 16 44 -4
10 -2 12 6 8 8 -5 9 -2 5 10 -4 10 -3 15 3 11 6 -3 10 3 10 14 0 12 7 21 15
21 12 0 14 4 5 19 -9 17 -7 19 11 16 18 -4 19 -2 7 12 -11 15 -11 16 4 10 10
-3 20 -1 24 5 5 7 2 8 -6 3 -10 -6 -12 -4 -7 7 3 9 0 21 -6 28 -9 10 -8 12 5
7 22 -8 31 3 16 20 -6 7 -8 16 -4 20 3 3 6 1 6 -6 0 -7 4 -10 10 -6 5 3 6 13
3 22 -4 11 -2 14 5 9 7 -4 10 1 7 14 -2 12 2 23 10 27 8 3 15 9 15 15 0 5 -4
7 -8 4 -4 -2 -8 5 -8 18 0 15 6 23 19 23 27 3 33 11 17 26 -10 10 -11 9 -5 -2
5 -10 4 -12 -4 -7 -15 10 -3 29 15 22 11 -4 13 0 9 17 -4 13 1 30 10 42 16 20
16 20 6 -2 -16 -31 -13 -42 3 -14 8 14 11 32 8 40 -3 9 -1 12 5 8 7 -5 10 2 9
17 -2 14 3 27 10 30 8 3 11 12 7 23 -3 10 -3 15 2 11 13 -13 34 25 24 43 -6
12 -4 19 9 24 16 6 16 7 -2 21 -11 8 -14 14 -7 14 7 0 9 5 5 12 -4 7 -3 8 5 4
6 -4 8 -12 5 -18 -4 -6 -2 -8 4 -4 6 3 9 16 7 27 -3 16 0 19 13 15 16 -6 16
-5 0 8 -25 19 -22 29 5 15 22 -12 22 -12 4 9 -18 20 -8 40 13 27 6 -3 7 1 4 9
-3 9 -11 13 -18 10 -6 -3 -4 0 4 8 9 7 14 22 12 33 -3 17 -1 18 8 5 9 -12 10
-7 7 22 -3 27 -1 35 8 32 7 -3 16 0 21 7 4 8 3 10 -4 5 -7 -4 -12 -1 -12 9 0
10 5 13 12 9 6 -4 8 -3 4 4 -3 6 -2 13 3 16 5 3 7 22 5 41 -1 20 1 33 6 30 5
-3 12 0 16 6 4 7 3 9 -3 6 -6 -4 -13 0 -16 7 -3 8 -1 16 5 18 6 2 12 17 14 33
2 20 0 25 -5 16 -6 -9 -8 -3 -8 17 1 17 5 28 9 26 14 -9 14 22 0 39 -14 16
-14 17 -1 12 17 -6 20 19 5 43 -4 6 -2 12 3 12 6 0 11 4 11 10 0 5 -6 7 -13 4
-15 -5 -17 31 -4 54 5 7 4 12 -2 12 -6 0 -11 7 -11 16 0 9 5 12 12 8 7 -4 8
-3 4 4 -4 7 -15 12 -24 13 -11 0 -12 3 -4 6 6 2 12 9 12 14 0 6 -6 7 -12 3 -8
-5 -7 0 2 11 8 10 10 16 4 12 -7 -4 -15 0 -18 9 -4 10 -2 13 7 8 6 -4 4 2 -5
13 -10 11 -18 24 -18 30 0 6 -6 16 -14 22 -8 7 -12 21 -8 33 3 12 1 19 -4 15
-6 -3 -16 4 -24 16 -12 21 -12 21 6 7 14 -10 13 -7 -4 11 -12 14 -19 29 -15
34 5 4 4 6 -2 3 -5 -3 -16 0 -23 8 -7 8 -11 14 -8 14 3 0 -6 11 -20 25 -14 14
-22 30 -18 37 4 7 3 8 -4 4 -12 -7 -54 29 -45 38 4 3 1 6 -5 6 -10 0 -30 13
-66 45 -6 6 -23 16 -38 22 -16 7 -28 16 -28 21 0 5 -16 14 -35 22 -19 8 -35
17 -35 22 0 4 -3 7 -7 7 -18 -3 -34 2 -30 9 3 4 -6 8 -20 9 -14 0 -29 7 -34
15 -5 7 -9 9 -9 4 0 -4 -12 -1 -26 9 -15 9 -24 13 -20 7 3 -5 -13 -3 -37 5
-67 24 -166 37 -250 34 -31 -1 -46 2 -42 9 3 5 4 10 1 10 -3 0 -8 -4 -11 -10z
m-88 -177 c0 -16 -1 -20 -4 -10 -3 10 -9 14 -16 10 -7 -4 -6 1 2 10 17 22 16
22 18 -10z m44 13 c14 8 11 -2 -4 -14 -10 -8 -13 -6 -14 11 0 12 1 16 4 9 3
-6 9 -10 14 -6z m-84 -11 c0 -8 -4 -12 -9 -9 -5 3 -6 10 -3 15 9 13 12 11 12
-6z m-147 -15 c-8 -5 -19 -10 -25 -10 -5 0 -3 5 5 10 8 5 20 10 25 10 6 0 3
-5 -5 -10z m415 -2 c5 4 5 1 1 -6 -6 -10 -11 -10 -22 -1 -8 6 -14 14 -14 16 0
3 6 0 13 -6 8 -6 18 -7 22 -3z m-530 -48 c-3 -5 -12 -10 -18 -10 -7 0 -6 4 3
10 19 12 23 12 15 0z m-38 -24 c0 -8 -6 -12 -15 -9 -11 5 -11 7 0 14 7 5 13 9
14 9 0 0 1 -6 1 -14z m-140 -76 c-2 -11 -6 -22 -9 -26 -4 -3 -5 2 -3 13 2 10
4 21 4 26 1 4 3 7 6 7 3 0 4 -9 2 -20z m-57 -30 c0 -5 -5 -10 -11 -10 -5 0 -7
5 -4 10 3 6 8 10 11 10 2 0 4 -4 4 -10z m-50 -30 c-6 -11 -13 -20 -16 -20 -2
0 0 9 6 20 6 11 13 20 16 20 2 0 0 -9 -6 -20z m-347 -275 c-3 -9 -8 -14 -10
-11 -3 3 -2 9 2 15 9 16 15 13 8 -4z m4221 -33 c3 -5 -1 -9 -9 -9 -8 0 -12 4
-9 9 3 4 7 8 9 8 2 0 6 -4 9 -8z m-40 -124 c-3 -4 -11 -8 -17 -7 -9 0 -9 2 0
5 7 3 9 13 6 22 -4 14 -3 14 5 2 6 -8 8 -18 6 -22z m-2254 -202 c0 -2 -7 -7
-16 -10 -8 -3 -12 -2 -9 4 6 10 25 14 25 6z m2156 -42 c1 -9 0 -13 -4 -10 -3
4 -7 14 -8 22 -1 9 0 13 4 10 3 -4 7 -14 8 -22z m-2836 -74 c0 -5 -5 -10 -11
-10 -5 0 -7 5 -4 10 3 6 8 10 11 10 2 0 4 -4 4 -10z m2747 -122 c-3 -8 -6 -5
-6 6 -1 11 2 17 5 13 3 -3 4 -12 1 -19z m-2182 -118 c-3 -5 -12 -10 -18 -10
-7 0 -6 4 3 10 19 12 23 12 15 0z m-64 -93 c-10 -9 -11 -8 -5 6 3 10 9 15 12
12 3 -3 0 -11 -7 -18z m2159 -71 c0 -2 -7 -9 -15 -16 -13 -11 -14 -10 -9 4 5
14 24 23 24 12z m-2840 -46 c0 -5 -5 -10 -11 -10 -5 0 -7 5 -4 10 3 6 8 10 11
10 2 0 4 -4 4 -10z m2802 -42 c-7 -7 -12 -8 -12 -2 0 14 12 26 19 19 2 -3 -1
-11 -7 -17z m-662 -48 c0 -5 -5 -10 -11 -10 -5 0 -7 5 -4 10 3 6 8 10 11 10 2
0 4 -4 4 -10z m-20 -50 c0 -5 -5 -10 -11 -10 -5 0 -7 5 -4 10 3 6 8 10 11 10
2 0 4 -4 4 -10z m-1565 -70 c-3 -5 -12 -10 -18 -10 -7 0 -6 4 3 10 19 12 23
12 15 0z m-175 -380 c0 -5 -5 -10 -11 -10 -5 0 -7 5 -4 10 3 6 8 10 11 10 2 0
4 -4 4 -10z m-920 -1120 c0 -5 -2 -10 -4 -10 -3 0 -8 5 -11 10 -3 6 -1 10 4
10 6 0 11 -4 11 -10z m2030 -47 c0 -5 -5 -15 -10 -23 -7 -12 -9 -10 -7 8 1 19
17 33 17 15z m-37 -26 c3 -8 -1 -14 -8 -14 -7 0 -11 6 -8 14 3 7 6 13 8 13 2
0 5 -6 8 -13z m-1788 -346 c-3 -6 3 -14 12 -20 10 -6 13 -11 8 -11 -13 0 -35
20 -35 32 0 4 5 8 11 8 5 0 8 -4 4 -9z m59 -56 c-4 -8 -11 -12 -17 -8 -8 5 -7
8 1 11 7 2 9 9 6 14 -4 7 -2 8 4 4 6 -4 9 -13 6 -21z m1249 -20 c-3 -9 -8 -14
-10 -11 -3 3 -2 9 2 15 9 16 15 13 8 -4z m-1163 -31 c0 -2 -9 0 -20 6 -11 6
-20 13 -20 16 0 2 9 0 20 -6 11 -6 20 -13 20 -16z m1140 22 c0 -2 -8 -10 -17
-17 -16 -13 -17 -12 -4 4 13 16 21 21 21 13z m-1073 -58 c-3 -8 -6 -5 -6 6 -1
11 2 17 5 13 3 -3 4 -12 1 -19z m964 -11 c-10 -9 -11 -8 -5 6 3 10 9 15 12 12
3 -3 0 -11 -7 -18z m-873 -38 c-3 -8 -7 -3 -11 10 -4 17 -3 21 5 13 5 -5 8
-16 6 -23z m737 2 c3 -5 2 -12 -3 -15 -5 -3 -9 1 -9 9 0 17 3 19 12 6z m-625
-7 c0 -8 -19 -13 -24 -6 -3 5 1 9 9 9 8 0 15 -2 15 -3z m94 -22 c2 -4 -7 -8
-20 -8 -13 -1 -24 1 -24 5 0 9 38 12 44 3z m67 -25 c-10 -9 -11 -8 -5 6 3 10
9 15 12 12 3 -3 0 -11 -7 -18z m272 2 c-8 -8 -13 -7 -18 2 -5 8 -4 10 3 5 7
-4 12 -2 12 5 0 7 3 9 7 6 4 -4 2 -12 -4 -18z m-174 -3 c8 -10 9 -16 1 -21 -6
-4 -9 -1 -8 7 2 7 -3 12 -9 11 -7 -2 -13 2 -13 7 0 14 16 12 29 -4z m63 -4 c8
-6 18 -9 21 -5 4 3 7 1 7 -6 0 -7 5 -9 12 -5 7 4 8 3 4 -4 -5 -8 -13 -9 -25
-2 -10 5 -22 6 -26 2 -3 -4 -5 -1 -3 7 2 7 -5 15 -15 16 -11 2 -22 6 -25 9
-11 12 36 0 50 -12z m1373 -112 c3 -6 -1 -7 -9 -4 -18 7 -21 14 -7 14 6 0 13
-4 16 -10z m-1685 -70 c0 -5 -5 -10 -11 -10 -5 0 -7 5 -4 10 3 6 8 10 11 10 2
0 4 -4 4 -10z m-223 -104 c0 -8 -6 -12 -15 -9 -11 5 -11 7 0 14 7 5 13 9 14 9
0 0 1 -6 1 -14z m-57 -20 c0 -2 -7 -7 -16 -10 -8 -3 -12 -2 -9 4 6 10 25 14
25 6z m-43 -21 c0 -8 -4 -12 -9 -9 -5 3 -6 10 -3 15 9 13 12 11 12 -6z m-67
-41 c0 -8 -19 -13 -24 -6 -3 5 1 9 9 9 8 0 15 -2 15 -3z m1915 -14 c-3 -5 -12
-10 -18 -10 -7 0 -6 4 3 10 19 12 23 12 15 0z m-2080 -110 c3 -6 -1 -7 -9 -4
-18 7 -21 14 -7 14 6 0 13 -4 16 -10z m-45 -14 c0 -2 -7 -7 -16 -10 -8 -3 -12
-2 -9 4 6 10 25 14 25 6z m2004 -40 c-3 -7 -12 -13 -21 -13 -14 0 -14 1 1 12
8 7 12 16 8 20 -4 5 -2 5 5 1 7 -4 10 -12 7 -20z m-2044 10 c0 -2 -8 -10 -17
-17 -16 -13 -17 -12 -4 4 13 16 21 21 21 13z m1380 -260 c0 -2 -8 -10 -17 -17
-16 -13 -17 -12 -4 4 13 16 21 21 21 13z m321 -169 c-10 -9 -11 -8 -5 6 3 10
9 15 12 12 3 -3 0 -11 -7 -18z m-187 -173 c3 -8 2 -12 -4 -9 -6 3 -10 10 -10
16 0 14 7 11 14 -7z m-157 -120 c-3 -3 -12 -4 -19 -1 -8 3 -5 6 6 6 11 1 17
-2 13 -5z m-32 -33 c3 -5 2 -12 -3 -15 -5 -3 -9 1 -9 9 0 17 3 19 12 6z m-292
-176 c-3 -9 -8 -14 -10 -11 -3 3 -2 9 2 15 9 16 15 13 8 -4z m-269 -123 c3 -5
-1 -9 -9 -9 -8 0 -12 4 -9 9 3 4 7 8 9 8 2 0 6 -4 9 -8z m66 2 c0 -8 -19 -13
-24 -6 -3 5 1 9 9 9 8 0 15 -2 15 -3z m-1315 -43 c3 -5 2 -12 -3 -15 -5 -3 -9
1 -9 9 0 17 3 19 12 6z m1145 -1 c0 -5 -5 -10 -11 -10 -5 0 -7 5 -4 10 3 6 8
10 11 10 2 0 4 -4 4 -10z m-93 -36 c-3 -3 -12 -4 -19 -1 -8 3 -5 6 6 6 11 1
17 -2 13 -5z m-986 -21 c13 -16 12 -17 -3 -4 -17 13 -22 21 -14 21 2 0 10 -8
17 -17z m876 -7 c-3 -7 0 -20 6 -27 10 -11 9 -11 -5 0 -15 11 -15 41 -1 41 3
0 3 -6 0 -14z m-852 -16 c-3 -5 -12 -10 -18 -10 -7 0 -6 4 3 10 19 12 23 12
15 0z m740 -19 c-9 -8 -36 -10 -30 -2 2 4 11 8 20 8 8 0 13 -3 10 -6z m-82
-53 c-8 -14 -19 -8 -20 12 -1 16 1 17 12 7 7 -6 11 -15 8 -19z m-329 -27 c-9
-9 -34 -9 -34 -1 0 5 9 8 20 7 10 -1 17 -3 14 -6z m86 3 c0 -8 -19 -13 -24 -6
-3 5 1 9 9 9 8 0 15 -2 15 -3z"/>
<path d="M2156 6061 c-4 -7 -5 -15 -2 -18 9 -9 19 4 14 18 -4 11 -6 11 -12 0z"/>
<path d="M2436 6042 c-3 -5 1 -9 9 -9 8 0 12 4 9 9 -3 4 -7 8 -9 8 -2 0 -6 -4
-9 -8z"/>
<path d="M5705 5930 c-3 -6 1 -7 9 -4 18 7 21 14 7 14 -6 0 -13 -4 -16 -10z"/>
<path d="M5005 5919 c-4 -6 -5 -12 -2 -15 2 -3 7 2 10 11 7 17 1 20 -8 4z"/>
<path d="M3215 5791 c-3 -5 -2 -12 3 -15 5 -3 9 1 9 9 0 17 -3 19 -12 6z"/>
<path d="M3286 5563 c-6 -14 -5 -15 5 -6 7 7 10 15 7 18 -3 3 -9 -2 -12 -12z"/>
<path d="M5536 5504 c-5 -14 -4 -15 9 -4 17 14 19 20 6 20 -5 0 -12 -7 -15
-16z"/>
<path d="M2585 5199 c-4 -6 -5 -12 -2 -15 2 -3 7 2 10 11 7 17 1 20 -8 4z"/>
<path d="M2440 4815 c-7 -9 -8 -15 -2 -15 5 0 12 7 16 15 3 8 4 15 2 15 -2 0
-9 -7 -16 -15z"/>
<path d="M3025 4620 c-3 -5 -2 -10 4 -10 5 0 13 5 16 10 3 6 2 10 -4 10 -5 0
-13 -4 -16 -10z"/>
<path d="M5110 4391 c0 -6 4 -12 8 -15 5 -3 9 1 9 9 0 8 -4 15 -9 15 -4 0 -8
-4 -8 -9z"/>
<path d="M2866 4243 c-4 -11 -1 -11 14 -3 24 13 25 17 5 17 -8 0 -16 -6 -19
-14z"/>
<path d="M2855 4211 c-3 -5 -2 -12 3 -15 5 -3 9 1 9 9 0 17 -3 19 -12 6z"/>
<path d="M2645 3760 c-3 -5 -2 -10 4 -10 5 0 13 5 16 10 3 6 2 10 -4 10 -5 0
-13 -4 -16 -10z"/>
<path d="M2625 3700 c-3 -5 -2 -10 4 -10 5 0 13 5 16 10 3 6 2 10 -4 10 -5 0
-13 -4 -16 -10z"/>
<path d="M2575 3570 c3 -5 8 -10 11 -10 2 0 4 5 4 10 0 6 -5 10 -11 10 -5 0
-7 -4 -4 -10z"/>
<path d="M3050 2290 c0 -5 5 -10 11 -10 5 0 7 5 4 10 -3 6 -8 10 -11 10 -2 0
-4 -4 -4 -10z"/>
<path d="M2650 2266 c0 -2 7 -7 16 -10 8 -3 12 -2 9 4 -6 10 -25 14 -25 6z"/>
<path d="M4140 2126 c0 -2 8 -10 18 -17 15 -13 16 -12 3 4 -13 16 -21 21 -21
13z"/>
<path d="M3562 2100 c-7 -11 -8 -20 -3 -20 9 0 24 30 18 36 -1 2 -8 -6 -15
-16z"/>
<path d="M1895 1750 c-3 -5 -1 -10 4 -10 6 0 11 5 11 10 0 6 -2 10 -4 10 -3 0
-8 -4 -11 -10z"/>
<path d="M2206 524 c-11 -7 -18 -16 -15 -18 2 -2 13 2 23 10 11 7 18 16 15 18
-2 2 -13 -2 -23 -10z"/>
</g>
</svg>
